<svg id="Layer_1" data-name="Layer 1" xmlns="http://www.w3.org/2000/svg" viewBox="0 0 253.65 62.01"><defs><style>.cls-1{fill:#fff;}</style>
</defs>
<title>nt_title</title>
<path class="cls-1" d="M4.64,19.5q0,.21,0,.67t.07.95q0,.48.1.87a1.14,1.14,0,0,0,.12.45h-4A2.56,2.56,0,0,0,1,22q.06-.39.12-.85t.09-.93q0-.47,0-.71V4.32q0-.21,0-.58T1.13,3Q1.07,2.61,1,2.31C1,2.11.94,2,.92,1.92H7.4a13.31,13.31,0,0,1,2.94.3,6.38,6.38,0,0,1,2.27,1,4.42,4.42,0,0,1,1.46,1.69,5.62,5.62,0,0,1,.51,2.5A5.2,5.2,0,0,1,14,9.76a5.57,5.57,0,0,1-1.58,1.89A7.76,7.76,0,0,1,10,12.9a9.87,9.87,0,0,1-3,.45H4.64Zm0-14.73V6.61q0,1,0,2.4t0,3.28H6.47a5.07,5.07,0,0,0,3.67-1.14A5.17,5.17,0,0,0,11.3,7.38a7.75,7.75,0,0,0-.21-1.9,3,3,0,0,0-.73-1.36A3.36,3.36,0,0,0,9,3.28,7,7,0,0,0,6.8,3Q6,3,5.57,3l-1,.06Z" transform="translate(-0.29 -0.42)"/>
<path class="cls-1" d="M18.32,13.84v.52a8.39,8.39,0,0,0,.45,3,5.44,5.44,0,0,0,1.16,1.9,4.06,4.06,0,0,0,1.56,1,5,5,0,0,0,1.67.3,7.08,7.08,0,0,0,1.6-.16A6.25,6.25,0,0,0,26,20a4.21,4.21,0,0,0,.92-.57,6.49,6.49,0,0,0,.65-.61l.21.15a7.17,7.17,0,0,1-.65,1.17A5.85,5.85,0,0,1,26,21.36a6.42,6.42,0,0,1-1.72,1,6.19,6.19,0,0,1-2.33.41,8.09,8.09,0,0,1-2.71-.45A5.89,5.89,0,0,1,17,21a6.47,6.47,0,0,1-1.47-2.29A8.87,8.87,0,0,1,15,15.42a7.91,7.91,0,0,1,.57-3.08A7.3,7.3,0,0,1,17.09,10,6.75,6.75,0,0,1,19.3,8.5,6.62,6.62,0,0,1,21.89,8a5.59,5.59,0,0,1,2.46.5A5.16,5.16,0,0,1,26,9.73a5,5,0,0,1,1,1.71,5.82,5.82,0,0,1,.31,1.85h-9A5,5,0,0,0,18.32,13.84ZM20.21,9a3.13,3.13,0,0,0-1,1,4.11,4.11,0,0,0-.57,1.35,10.12,10.12,0,0,0-.24,1.51l5.79-.21q0-.63-.06-1.33a4.35,4.35,0,0,0-.3-1.29,2.48,2.48,0,0,0-.71-1,1.92,1.92,0,0,0-1.27-.39A3.13,3.13,0,0,0,20.21,9Z" transform="translate(-0.29 -0.42)"/>
<path class="cls-1" d="M38.92,8.44A7.22,7.22,0,0,1,43,12.15a7.15,7.15,0,0,1,.68,3.18,7.33,7.33,0,0,1-.62,3,7.33,7.33,0,0,1-9.33,3.92,7.53,7.53,0,0,1-2.37-1.41,7.07,7.07,0,0,1-1.73-2.31A7.29,7.29,0,0,1,29,15.39a7.33,7.33,0,0,1,.62-3A7.53,7.53,0,0,1,31.24,10a7,7,0,0,1,2.33-1.5A7.41,7.41,0,0,1,36.32,8,7.7,7.7,0,0,1,38.92,8.44Zm-.67,13.11a3.53,3.53,0,0,0,1.25-1.4A7,7,0,0,0,40.15,18a17.76,17.76,0,0,0,.2-2.75,9.56,9.56,0,0,0-1-5,3.33,3.33,0,0,0-3-1.59,3.62,3.62,0,0,0-2,.49,3.36,3.36,0,0,0-1.2,1.4,7,7,0,0,0-.6,2.15,20.75,20.75,0,0,0-.17,2.71,9.2,9.2,0,0,0,1.06,5,3.31,3.31,0,0,0,2.9,1.6A3.52,3.52,0,0,0,38.24,21.55Z" transform="translate(-0.29 -0.42)"/>
<path class="cls-1" d="M46.18,9.91q0-.25-.12-.52t-.15-.48a1.47,1.47,0,0,0-.13-.3L49.43,8V9.75h0A6.58,6.58,0,0,1,51.4,8.47,6.08,6.08,0,0,1,53.87,8a12.37,12.37,0,0,1,2.34.23,4.92,4.92,0,0,1,3.69,3,8.7,8.7,0,0,1,.6,3.52,8.59,8.59,0,0,1-.69,3.58,7.41,7.41,0,0,1-1.8,2.5,7.24,7.24,0,0,1-2.53,1.47,8.93,8.93,0,0,1-2.86.48,12,12,0,0,1-1.79-.12,5.76,5.76,0,0,1-1.36-.36v5.49c0,.12,0,.26,0,.42s0,.32,0,.48a4.4,4.4,0,0,0,.07.44.91.91,0,0,0,.1.29H46q0-.09.08-.29t.09-.44a4,4,0,0,0,.06-.48c0-.16,0-.3,0-.42V10.35A2.53,2.53,0,0,0,46.18,9.91Zm4.6,11.76a3.28,3.28,0,0,0,1.68.5,5,5,0,0,0,1.87-.34,3.48,3.48,0,0,0,1.48-1.19,6.16,6.16,0,0,0,1-2.19,14,14,0,0,0,.35-3.39,7.46,7.46,0,0,0-1.06-4.48A4,4,0,0,0,52.7,9.18,5.15,5.15,0,0,0,51,9.51a4.52,4.52,0,0,0-1.53.87v10A3.66,3.66,0,0,0,50.78,21.67Z" transform="translate(-0.29 -0.42)"/>
<path class="cls-1" d="M66.28,21.73a2.28,2.28,0,0,0,.17.71H62.75a2.28,2.28,0,0,0,.17-.71,7,7,0,0,0,.08-.88v-18a3.81,3.81,0,0,0,0-.44q0-.25-.08-.52t-.09-.5a.62.62,0,0,0-.1-.29L66.2.51V20.85A6.92,6.92,0,0,0,66.28,21.73Z" transform="translate(-0.29 -0.42)"/>
<path class="cls-1" d="M72,13.84v.52a8.39,8.39,0,0,0,.45,3,5.44,5.44,0,0,0,1.16,1.9,4.06,4.06,0,0,0,1.56,1,5,5,0,0,0,1.67.3,7.08,7.08,0,0,0,1.6-.16A6.25,6.25,0,0,0,79.67,20a4.21,4.21,0,0,0,.92-.57,6.49,6.49,0,0,0,.65-.61l.21.15a7.17,7.17,0,0,1-.65,1.17,5.85,5.85,0,0,1-1.16,1.26,6.42,6.42,0,0,1-1.72,1,6.19,6.19,0,0,1-2.33.41,8.09,8.09,0,0,1-2.71-.45A5.89,5.89,0,0,1,70.67,21a6.47,6.47,0,0,1-1.47-2.29,8.87,8.87,0,0,1-.54-3.24,7.91,7.91,0,0,1,.57-3.08A7.3,7.3,0,0,1,70.76,10,6.75,6.75,0,0,1,73,8.5,6.62,6.62,0,0,1,75.56,8a5.59,5.59,0,0,1,2.46.5A5.16,5.16,0,0,1,79.7,9.73a5,5,0,0,1,1,1.71A5.82,5.82,0,0,1,81,13.29H72A5,5,0,0,0,72,13.84ZM73.88,9a3.13,3.13,0,0,0-1,1,4.11,4.11,0,0,0-.57,1.35,10.12,10.12,0,0,0-.24,1.51l5.79-.21q0-.63-.06-1.33a4.35,4.35,0,0,0-.3-1.29,2.48,2.48,0,0,0-.71-1,1.92,1.92,0,0,0-1.27-.39A3.13,3.13,0,0,0,73.88,9Z" transform="translate(-0.29 -0.42)"/>
<path class="cls-1" d="M86.32,2.44A4.7,4.7,0,0,1,86.57,4a4,4,0,0,1-1,2.73,11.16,11.16,0,0,1-2.65,2.13l-.27-.45a8.63,8.63,0,0,0,.92-.69A2.53,2.53,0,0,0,84.14,7a3.16,3.16,0,0,0,.3-.93,7.9,7.9,0,0,0,.09-1.3,3,3,0,0,0-.33-1.26,3.6,3.6,0,0,0-.93-1.2l2.37-1.08A3.67,3.67,0,0,1,86.32,2.44Z" transform="translate(-0.29 -0.42)"/>
<path class="cls-1" d="M89.11,22.39a7.92,7.92,0,0,1-2-.89l1-2.67a12.17,12.17,0,0,0,.6,1.26,4.89,4.89,0,0,0,.77,1,3.26,3.26,0,0,0,1,.71,3,3,0,0,0,1.25.25A4,4,0,0,0,94,21.54a2.1,2.1,0,0,0,.79-1.83,1.83,1.83,0,0,0-.23-.93,2.55,2.55,0,0,0-.67-.74,6.27,6.27,0,0,0-1.11-.66l-1.53-.73q-.9-.45-1.59-.84a4.55,4.55,0,0,1-1.14-.88,3.22,3.22,0,0,1-.67-1.19,5.47,5.47,0,0,1-.23-1.68A3.7,3.7,0,0,1,88,10.44a3.83,3.83,0,0,1,1-1.29,4.91,4.91,0,0,1,1.54-.85,6.06,6.06,0,0,1,2-.31,8.77,8.77,0,0,1,2.4.29,7.39,7.39,0,0,1,1.86.82l-1.2,2.19a5.89,5.89,0,0,0-.39-.94,3.57,3.57,0,0,0-.6-.84,2.75,2.75,0,0,0-.85-.6,2.85,2.85,0,0,0-1.19-.23,2.72,2.72,0,0,0-2,.62A2.15,2.15,0,0,0,90,10.83a3,3,0,0,0,.1.84,1.7,1.7,0,0,0,.38.66,3.52,3.52,0,0,0,.75.6,9.76,9.76,0,0,0,1.23.63q1.23.54,2.15,1a7.87,7.87,0,0,1,1.53,1,3.77,3.77,0,0,1,.92,1.2,3.48,3.48,0,0,1,.3,1.48,3.81,3.81,0,0,1-1.57,3.33,7,7,0,0,1-4.09,1.11A8.65,8.65,0,0,1,89.11,22.39Z" transform="translate(-0.29 -0.42)"/>
<path class="cls-1" d="M115.12,21.43q.74,0,1.53-.08t1.5-.17a3.29,3.29,0,0,0,1-.28L119,22.44H106.16a3,3,0,0,0,.21-.75,5.68,5.68,0,0,0,.12-1.11V4.32q0-.21,0-.58T106.37,3q-.06-.37-.12-.68t-.09-.39h4a1.26,1.26,0,0,0-.12.39q-.06.3-.1.68t-.08.75q0,.38,0,.58V21.45h4.17Z" transform="translate(-0.29 -0.42)"/>
<path class="cls-1" d="M123,8.46A9,9,0,0,1,126,8a9.36,9.36,0,0,1,2.43.27,4.22,4.22,0,0,1,1.6.78,2.79,2.79,0,0,1,.87,1.23,4.93,4.93,0,0,1,.25,1.65q0,1,0,2t0,1.88q0,.94,0,2t0,2.22a1.29,1.29,0,0,0,.36,1.1,1.52,1.52,0,0,0,.9.25,1.63,1.63,0,0,0,1.2-.48l.09.09a2,2,0,0,1-.35.63,3.34,3.34,0,0,1-.63.62,3.28,3.28,0,0,1-.87.46,3,3,0,0,1-1,.18,3.64,3.64,0,0,1-1.29-.2,2.17,2.17,0,0,1-.81-.51,1.93,1.93,0,0,1-.44-.71,7.68,7.68,0,0,1-.23-.78h-.12a7.18,7.18,0,0,1-.63.78,4.4,4.4,0,0,1-1.93,1.21,4.61,4.61,0,0,1-2.65,0,3.29,3.29,0,0,1-1.12-.6,3,3,0,0,1-.79-1,3.36,3.36,0,0,1-.3-1.48,3.73,3.73,0,0,1,.25-1.48,2.82,2.82,0,0,1,.66-1,3.1,3.1,0,0,1,.9-.59l1-.39,1.3-.44,1.31-.44L127,14.8l.92-.29V11a2.55,2.55,0,0,0-.5-1.83,2.62,2.62,0,0,0-1.81-.48,3,3,0,0,0-1.33.3,4.9,4.9,0,0,0-1.21.87,7.84,7.84,0,0,0-.77.9q-.37.51-.71,1.05L120.5,9.72A10.71,10.71,0,0,1,123,8.46Zm4.17,6.87-.9.33-.92.35-.81.31a1.76,1.76,0,0,0-1,.88,3.5,3.5,0,0,0-.33,1.6,2.82,2.82,0,0,0,.51,1.77,1.85,1.85,0,0,0,1.56.66,2.86,2.86,0,0,0,1.47-.4,2.68,2.68,0,0,0,1-.92l.12-4.86Z" transform="translate(-0.29 -0.42)"/>
<path class="cls-1" d="M135.05,9.94q0-.25-.08-.52t-.09-.5a.62.62,0,0,0-.1-.28L138.26,8V9.87h.06q.3-.24.6-.45t.72-.45a8.13,8.13,0,0,1,1.65-.69A5.62,5.62,0,0,1,142.88,8a7.41,7.41,0,0,1,2.23.28,3,3,0,0,1,1.4.87,3.39,3.39,0,0,1,.72,1.48,9.65,9.65,0,0,1,.21,2.16v8a7,7,0,0,0,.07.88,1.67,1.67,0,0,0,.2.71H144a1.67,1.67,0,0,0,.19-.71,6.92,6.92,0,0,0,.08-.88V12.69a4.19,4.19,0,0,0-.58-2.49,2.49,2.49,0,0,0-2.11-.78,5.2,5.2,0,0,0-1.67.3,5.72,5.72,0,0,0-1.58.81V20.85a6.92,6.92,0,0,0,.08.88,2.28,2.28,0,0,0,.17.71h-3.69a2.28,2.28,0,0,0,.17-.71,7,7,0,0,0,.08-.88V10.38A3.81,3.81,0,0,0,135.05,9.94Z" transform="translate(-0.29 -0.42)"/>
<path class="cls-1" d="M160.37,3.06q0-.39-.08-.82t-.1-.78a2.34,2.34,0,0,0-.09-.4l3.48-.63V17.55q0,.78,0,1.92,0,.15,0,.61t0,1q0,.5.07.92a1.18,1.18,0,0,0,.1.48l-1.17,0-1.09,0q-.59,0-1.1.09V20.7h-.09a3,3,0,0,1-.55.69,5,5,0,0,1-2.1,1.18,5.32,5.32,0,0,1-1.48.2,6.8,6.8,0,0,1-2.55-.48,6,6,0,0,1-2.1-1.41,6.54,6.54,0,0,1-1.41-2.29,9,9,0,0,1-.51-3.16,7.09,7.09,0,0,1,.69-3.21,7.41,7.41,0,0,1,1.79-2.33,7.61,7.61,0,0,1,2.44-1.42,8,8,0,0,1,2.7-.48,9.16,9.16,0,0,1,1.84.17,11.49,11.49,0,0,1,1.25.31V3.63Q160.4,3.45,160.37,3.06Zm-.24,7a2.43,2.43,0,0,0-.69-.83,2.67,2.67,0,0,0-.93-.45,3.85,3.85,0,0,0-1-.14,3.92,3.92,0,0,0-3.27,1.6,7.45,7.45,0,0,0-1.23,4.6,8.27,8.27,0,0,0,1.16,4.89,3.87,3.87,0,0,0,3.31,1.56,3.39,3.39,0,0,0,1.83-.44A5.42,5.42,0,0,0,160.4,20V11.31A2.6,2.6,0,0,0,160.13,10.08Z" transform="translate(-0.29 -0.42)"/>
<path class="cls-1" d="M168.34,22.39a7.92,7.92,0,0,1-2-.89l1-2.67a12.17,12.17,0,0,0,.6,1.26,4.89,4.89,0,0,0,.77,1,3.26,3.26,0,0,0,1,.71,3,3,0,0,0,1.25.25,4,4,0,0,0,2.33-.57,2.1,2.1,0,0,0,.79-1.83,1.83,1.83,0,0,0-.23-.93,2.55,2.55,0,0,0-.67-.74,6.27,6.27,0,0,0-1.11-.66l-1.53-.73q-.9-.45-1.59-.84a4.55,4.55,0,0,1-1.14-.88,3.22,3.22,0,0,1-.67-1.19,5.47,5.47,0,0,1-.23-1.68,3.7,3.7,0,0,1,.36-1.62,3.83,3.83,0,0,1,1-1.29,4.91,4.91,0,0,1,1.54-.85,6.06,6.06,0,0,1,2-.31,8.77,8.77,0,0,1,2.4.29,7.39,7.39,0,0,1,1.86.82l-1.2,2.19a5.89,5.89,0,0,0-.39-.94,3.57,3.57,0,0,0-.6-.84,2.75,2.75,0,0,0-.85-.6,2.85,2.85,0,0,0-1.19-.23,2.72,2.72,0,0,0-2,.62,2.15,2.15,0,0,0-.58,1.54,3,3,0,0,0,.1.84,1.7,1.7,0,0,0,.38.66,3.52,3.52,0,0,0,.75.6,9.76,9.76,0,0,0,1.23.63q1.23.54,2.15,1a7.87,7.87,0,0,1,1.53,1,3.77,3.77,0,0,1,.92,1.2,3.48,3.48,0,0,1,.3,1.48A3.81,3.81,0,0,1,175,21.66a7,7,0,0,1-4.09,1.11A8.65,8.65,0,0,1,168.34,22.39Z" transform="translate(-0.29 -0.42)"/>
<path class="cls-1" d="M182.12,17.32a6.06,6.06,0,0,0,1,1.89,4.09,4.09,0,0,0,1.44,1.14,4,4,0,0,0,1.68.38,6.87,6.87,0,0,0,2.47-.46,4.11,4.11,0,0,0,1.94-1.48l.15.12a6.08,6.08,0,0,1-.7,1.43,5,5,0,0,1-1.19,1.24,6.1,6.1,0,0,1-1.67.87,6.48,6.48,0,0,1-2.14.33,6.78,6.78,0,0,1-4.63-1.86A6.86,6.86,0,0,1,179,18.69a7.42,7.42,0,0,1-.58-3A8.32,8.32,0,0,1,179,12.3a7.11,7.11,0,0,1,1.67-2.4,6.83,6.83,0,0,1,2.38-1.44A8.19,8.19,0,0,1,185.81,8a10.19,10.19,0,0,1,2.85.36,4.42,4.42,0,0,1,1.92,1.05l-1.74,2.22q-.24-.51-.55-1.06a5.2,5.2,0,0,0-.71-1,3.71,3.71,0,0,0-.87-.66,2.26,2.26,0,0,0-1.08-.24,3.34,3.34,0,0,0-2.85,1.44,7.82,7.82,0,0,0-1.05,4.56A8.11,8.11,0,0,0,182.12,17.32Z" transform="translate(-0.29 -0.42)"/>
<path class="cls-1" d="M194.38,8.46a9,9,0,0,1,3-.48,9.36,9.36,0,0,1,2.43.27,4.23,4.23,0,0,1,1.61.78,2.79,2.79,0,0,1,.87,1.23,4.93,4.93,0,0,1,.25,1.65q0,1,0,2t0,1.88q0,.94,0,2t0,2.22a1.29,1.29,0,0,0,.36,1.1,1.52,1.52,0,0,0,.9.25,1.63,1.63,0,0,0,1.2-.48l.09.09a2,2,0,0,1-.34.63,3.38,3.38,0,0,1-.63.62,3.26,3.26,0,0,1-.87.46,3,3,0,0,1-1,.18,3.64,3.64,0,0,1-1.29-.2,2.16,2.16,0,0,1-.81-.51,1.93,1.93,0,0,1-.44-.71,7.55,7.55,0,0,1-.22-.78h-.12a7.23,7.23,0,0,1-.63.78,4.5,4.5,0,0,1-.84.71,4.42,4.42,0,0,1-1.1.51,4.38,4.38,0,0,1-1.33.2,4.42,4.42,0,0,1-1.32-.2,3.3,3.3,0,0,1-1.12-.6,3,3,0,0,1-.79-1,3.36,3.36,0,0,1-.3-1.48A3.73,3.73,0,0,1,192,18a2.81,2.81,0,0,1,.66-1,3.09,3.09,0,0,1,.9-.59l1-.39,1.31-.44,1.3-.44,1.18-.37.92-.29V11a2.55,2.55,0,0,0-.5-1.83A2.61,2.61,0,0,0,197,8.67a3,3,0,0,0-1.33.3,4.89,4.89,0,0,0-1.21.87,7.88,7.88,0,0,0-.76.9q-.37.51-.71,1.05l-1.08-2.07A10.7,10.7,0,0,1,194.38,8.46Zm4.17,6.87-.9.33-.92.35-.81.31a1.76,1.76,0,0,0-1,.88,3.51,3.51,0,0,0-.33,1.6,2.82,2.82,0,0,0,.51,1.77,1.85,1.85,0,0,0,1.56.66,2.86,2.86,0,0,0,1.47-.4,2.67,2.67,0,0,0,1-.92l.12-4.86Z" transform="translate(-0.29 -0.42)"/>
<path class="cls-1" d="M206.41,9.91c0-.17-.07-.35-.12-.52s-.1-.34-.15-.48a1.46,1.46,0,0,0-.14-.3L209.66,8V9.75h0a6.58,6.58,0,0,1,1.93-1.27A6.08,6.08,0,0,1,214.1,8a12.38,12.38,0,0,1,2.34.23,4.92,4.92,0,0,1,3.69,3,8.69,8.69,0,0,1,.6,3.52,8.59,8.59,0,0,1-.69,3.58,7.43,7.43,0,0,1-1.8,2.5,7.24,7.24,0,0,1-2.54,1.47,8.93,8.93,0,0,1-2.87.48,12,12,0,0,1-1.78-.12,5.76,5.76,0,0,1-1.37-.36v5.49c0,.12,0,.26,0,.42s0,.32,0,.48a4.39,4.39,0,0,0,.08.44.91.91,0,0,0,.11.29h-3.72c0-.06,0-.16.07-.29s.06-.27.09-.44a3.84,3.84,0,0,0,.06-.48c0-.16,0-.3,0-.42V10.35A2.53,2.53,0,0,0,206.41,9.91ZM211,21.67a3.29,3.29,0,0,0,1.68.5,5,5,0,0,0,1.88-.34,3.49,3.49,0,0,0,1.48-1.19,6.18,6.18,0,0,0,1-2.19,14,14,0,0,0,.34-3.39,7.46,7.46,0,0,0-1.07-4.48,4,4,0,0,0-3.37-1.39,5.15,5.15,0,0,0-1.71.33,4.51,4.51,0,0,0-1.53.87v10A3.67,3.67,0,0,0,211,21.67Z" transform="translate(-0.29 -0.42)"/>
<path class="cls-1" d="M225.71,13.84v.52a8.37,8.37,0,0,0,.45,3,5.44,5.44,0,0,0,1.15,1.9,4.06,4.06,0,0,0,1.56,1,5,5,0,0,0,1.67.3,7.08,7.08,0,0,0,1.6-.16,6.27,6.27,0,0,0,1.25-.42,4.2,4.2,0,0,0,.92-.57,6.43,6.43,0,0,0,.64-.61l.21.15a7.09,7.09,0,0,1-.64,1.17,5.84,5.84,0,0,1-1.16,1.26,6.41,6.41,0,0,1-1.72,1,6.19,6.19,0,0,1-2.33.41,8.09,8.09,0,0,1-2.71-.45A5.9,5.9,0,0,1,224.39,21a6.48,6.48,0,0,1-1.47-2.29,8.86,8.86,0,0,1-.54-3.24,7.92,7.92,0,0,1,.57-3.08A7.31,7.31,0,0,1,224.48,10a6.76,6.76,0,0,1,2.21-1.5A6.62,6.62,0,0,1,229.28,8a5.59,5.59,0,0,1,2.46.5,5.16,5.16,0,0,1,1.68,1.26,5,5,0,0,1,1,1.71,5.82,5.82,0,0,1,.32,1.85h-9A4.89,4.89,0,0,0,225.71,13.84ZM227.6,9a3.13,3.13,0,0,0-1,1,4.11,4.11,0,0,0-.57,1.35,10.12,10.12,0,0,0-.24,1.51l5.79-.21q0-.63-.06-1.33a4.35,4.35,0,0,0-.3-1.29,2.47,2.47,0,0,0-.7-1,1.92,1.92,0,0,0-1.28-.39A3.13,3.13,0,0,0,227.6,9Z" transform="translate(-0.29 -0.42)"/>
<path class="cls-1" d="M239,22.39a7.91,7.91,0,0,1-2-.89l1-2.67a12.17,12.17,0,0,0,.6,1.26,4.88,4.88,0,0,0,.76,1,3.26,3.26,0,0,0,1,.71,3,3,0,0,0,1.25.25,4,4,0,0,0,2.32-.57,2.1,2.1,0,0,0,.79-1.83,1.82,1.82,0,0,0-.22-.93,2.56,2.56,0,0,0-.67-.74,6.24,6.24,0,0,0-1.11-.66l-1.53-.73q-.9-.45-1.59-.84a4.53,4.53,0,0,1-1.14-.88,3.23,3.23,0,0,1-.67-1.19,5.45,5.45,0,0,1-.22-1.68,3.69,3.69,0,0,1,.36-1.62,3.83,3.83,0,0,1,1-1.29,4.92,4.92,0,0,1,1.54-.85,6.06,6.06,0,0,1,2-.31,8.77,8.77,0,0,1,2.4.29,7.36,7.36,0,0,1,1.86.82l-1.2,2.19a5.94,5.94,0,0,0-.39-.94,3.54,3.54,0,0,0-.6-.84,2.76,2.76,0,0,0-.85-.6,2.85,2.85,0,0,0-1.19-.23,2.72,2.72,0,0,0-2,.62,2.15,2.15,0,0,0-.58,1.54,3,3,0,0,0,.1.84,1.7,1.7,0,0,0,.38.66,3.49,3.49,0,0,0,.75.6,9.81,9.81,0,0,0,1.23.63q1.23.54,2.14,1a7.87,7.87,0,0,1,1.53,1,3.76,3.76,0,0,1,.91,1.2,3.48,3.48,0,0,1,.3,1.48,3.81,3.81,0,0,1-1.58,3.33,7,7,0,0,1-4.09,1.11A8.65,8.65,0,0,1,239,22.39Z" transform="translate(-0.29 -0.42)"/>
<path class="cls-1" d="M250.79,8.47a1.77,1.77,0,0,1,1.32-.56,1.74,1.74,0,0,1,1.29.56,1.81,1.81,0,0,1,.54,1.3,1.84,1.84,0,0,1-1.83,1.83,1.8,1.8,0,0,1-1.32-.54,1.76,1.76,0,0,1-.54-1.29A1.81,1.81,0,0,1,250.79,8.47Zm0,11a1.75,1.75,0,0,1,1.32-.57,1.72,1.72,0,0,1,1.29.57,1.86,1.86,0,0,1,.54,1.32,1.84,1.84,0,0,1-1.83,1.83,1.8,1.8,0,0,1-1.32-.54,1.76,1.76,0,0,1-.54-1.29A1.86,1.86,0,0,1,250.79,19.47Z" transform="translate(-0.29 -0.42)"/>
<path class="cls-1" d="M4.82,55.59A12.76,12.76,0,0,1,3,55.06a10.1,10.1,0,0,1-1.51-.71Q.8,54,.29,53.61l1.29-2.88A10.9,10.9,0,0,0,4,53.8a4.51,4.51,0,0,0,2.92,1,6.82,6.82,0,0,0,2.19-.3,3.42,3.42,0,0,0,1.36-.81,2.79,2.79,0,0,0,.69-1.19,5.09,5.09,0,0,0,.2-1.42,4.11,4.11,0,0,0-.23-1.44,3,3,0,0,0-.77-1.11,6.8,6.8,0,0,0-1.42-1,21.73,21.73,0,0,0-2.23-1Q5.48,46,4.43,45.48a7.79,7.79,0,0,1-1.78-1.23,4.82,4.82,0,0,1-1.14-1.64,5.73,5.73,0,0,1-.4-2.26A6.09,6.09,0,0,1,1.54,38a5,5,0,0,1,1.27-1.83A6,6,0,0,1,4.87,35a8.11,8.11,0,0,1,2.75-.43,12.66,12.66,0,0,1,3.22.4,8.27,8.27,0,0,1,2.6,1.13l-1.11,2.49a5.75,5.75,0,0,0-1.9-2.25,4.91,4.91,0,0,0-2.86-.84,5,5,0,0,0-1.47.21,3.46,3.46,0,0,0-1.21.65A3,3,0,0,0,4,37.42a3.48,3.48,0,0,0-.3,1.48A3.63,3.63,0,0,0,4,40.17a3.35,3.35,0,0,0,.69,1.1,5.33,5.33,0,0,0,1.29,1,17,17,0,0,0,2,.95q1.65.66,2.86,1.27a8.75,8.75,0,0,1,2,1.33,4.78,4.78,0,0,1,1.17,1.62,5.25,5.25,0,0,1,.39,2.1A6.84,6.84,0,0,1,13.9,52a5.28,5.28,0,0,1-1.35,2,6.35,6.35,0,0,1-2.31,1.33,10.21,10.21,0,0,1-3.31.48A10.1,10.1,0,0,1,4.82,55.59Z" transform="translate(-0.29 -0.42)"/>
<path class="cls-1" d="M24.83,42.51H21v9.21a2.29,2.29,0,0,0,.6,1.65,2.17,2.17,0,0,0,1.65.63,5.12,5.12,0,0,0,1.41-.18,2.43,2.43,0,0,0,1-.51l.12.18a4.73,4.73,0,0,1-.51.63,4.81,4.81,0,0,1-.92.75,6.61,6.61,0,0,1-1.27.63,4.4,4.4,0,0,1-1.56.27,4,4,0,0,1-2.69-.83,3.07,3.07,0,0,1-.94-2.44l.06-10H16V42.3a21.26,21.26,0,0,0,4.77-4.62H21l0,3.66h4.14Z" transform="translate(-0.29 -0.42)"/>
<path class="cls-1" d="M29.17,41.46a9,9,0,0,1,3-.48,9.36,9.36,0,0,1,2.43.27,4.22,4.22,0,0,1,1.6.78,2.79,2.79,0,0,1,.87,1.23,4.93,4.93,0,0,1,.25,1.65q0,1,0,2t0,1.88q0,.94,0,2t0,2.22a1.29,1.29,0,0,0,.36,1.1,1.52,1.52,0,0,0,.9.25,1.63,1.63,0,0,0,1.2-.48l.09.09a2,2,0,0,1-.35.63,3.34,3.34,0,0,1-.63.62,3.28,3.28,0,0,1-.87.46,3,3,0,0,1-1,.18,3.64,3.64,0,0,1-1.29-.2,2.17,2.17,0,0,1-.81-.51,1.93,1.93,0,0,1-.44-.71,7.68,7.68,0,0,1-.23-.78H34a7.18,7.18,0,0,1-.63.78,4.4,4.4,0,0,1-1.93,1.21,4.61,4.61,0,0,1-2.65,0,3.29,3.29,0,0,1-1.12-.6,3,3,0,0,1-.79-1,3.36,3.36,0,0,1-.3-1.48A3.73,3.73,0,0,1,26.83,51a2.82,2.82,0,0,1,.66-1,3.1,3.1,0,0,1,.9-.59l1-.39,1.3-.44L32,48.18l1.19-.37.92-.29V44a2.55,2.55,0,0,0-.5-1.83,2.62,2.62,0,0,0-1.81-.48,3,3,0,0,0-1.33.3,4.9,4.9,0,0,0-1.21.87,7.84,7.84,0,0,0-.77.9q-.37.51-.71,1.05l-1.08-2.07A10.71,10.71,0,0,1,29.17,41.46Zm4.17,6.87-.9.33-.92.35-.81.31a1.76,1.76,0,0,0-1,.88,3.5,3.5,0,0,0-.33,1.6,2.82,2.82,0,0,0,.51,1.77,1.85,1.85,0,0,0,1.56.66,2.86,2.86,0,0,0,1.47-.4,2.68,2.68,0,0,0,1-.92l.12-4.86Z" transform="translate(-0.29 -0.42)"/>
<path class="cls-1" d="M44.53,54.73a2.28,2.28,0,0,0,.17.71H41a1.59,1.59,0,0,0,.18-.71,8.67,8.67,0,0,0,.06-.88v-18q0-.18,0-.44a4.83,4.83,0,0,0-.06-.52q0-.27-.09-.5a.62.62,0,0,0-.1-.29l3.51-.63V53.85A7,7,0,0,0,44.53,54.73ZM53.3,41.34l-.75.48q-.33.21-.67.47a8.7,8.7,0,0,0-.71.58l-.84.78-2.85,2.94,4.95,6.6a6.6,6.6,0,0,0,.69.9q.36.39.69.69a6.39,6.39,0,0,0,.69.6v.06H50.3l-5.4-7.38,6.48-6.72Z" transform="translate(-0.29 -0.42)"/>
<path class="cls-1" d="M57.92,46.84v.52a8.39,8.39,0,0,0,.45,3,5.44,5.44,0,0,0,1.16,1.9,4.06,4.06,0,0,0,1.56,1,5,5,0,0,0,1.67.3,7.08,7.08,0,0,0,1.6-.16A6.25,6.25,0,0,0,65.6,53a4.21,4.21,0,0,0,.92-.57,6.49,6.49,0,0,0,.65-.61l.21.15a7.17,7.17,0,0,1-.65,1.17,5.85,5.85,0,0,1-1.16,1.26,6.42,6.42,0,0,1-1.72,1,6.19,6.19,0,0,1-2.33.41,8.09,8.09,0,0,1-2.71-.45A5.89,5.89,0,0,1,56.6,54a6.47,6.47,0,0,1-1.47-2.29,8.87,8.87,0,0,1-.54-3.24,7.91,7.91,0,0,1,.57-3.08A7.3,7.3,0,0,1,56.69,43a6.75,6.75,0,0,1,2.21-1.5A6.62,6.62,0,0,1,61.49,41a5.59,5.59,0,0,1,2.46.5,5.16,5.16,0,0,1,1.68,1.26,5,5,0,0,1,1,1.71,5.82,5.82,0,0,1,.31,1.85H58A5,5,0,0,0,57.92,46.84ZM59.81,42a3.13,3.13,0,0,0-1,1,4.11,4.11,0,0,0-.57,1.35A10.12,10.12,0,0,0,58,45.78l5.79-.21q0-.63-.06-1.33a4.35,4.35,0,0,0-.3-1.29,2.48,2.48,0,0,0-.71-1,1.92,1.92,0,0,0-1.27-.39A3.13,3.13,0,0,0,59.81,42Z" transform="translate(-0.29 -0.42)"/>
<path class="cls-1" d="M69.71,35.44q0-.25-.08-.52t-.09-.5a.62.62,0,0,0-.1-.29l3.48-.63v9.33H73q.3-.24.6-.45t.72-.45A8.19,8.19,0,0,1,76,41.25,5.62,5.62,0,0,1,77.54,41a7.41,7.41,0,0,1,2.23.29,3,3,0,0,1,1.4.87,3.39,3.39,0,0,1,.72,1.49,9.65,9.65,0,0,1,.21,2.16v7.5q0,.18,0,.51t.06.67q0,.34.09.63a.75.75,0,0,0,.1.35H78.62a.75.75,0,0,0,.1-.35q0-.28.09-.63t.06-.67q0-.33,0-.51V45.66a4.19,4.19,0,0,0-.58-2.49,2.49,2.49,0,0,0-2.11-.78,5,5,0,0,0-1.67.31,6,6,0,0,0-1.58.82v9.75c0,.12,0,.29,0,.51s0,.44.06.67.06.44.07.63a.69.69,0,0,0,.09.35H69.47a.77.77,0,0,0,.1-.35q0-.28.07-.63t0-.67q0-.33,0-.51l0-17.4A3.81,3.81,0,0,0,69.71,35.44Z" transform="translate(-0.29 -0.42)"/>
<path class="cls-1" d="M94.36,41.44a7.22,7.22,0,0,1,4.11,3.71,7.15,7.15,0,0,1,.68,3.18,7.33,7.33,0,0,1-.62,3,7.33,7.33,0,0,1-9.33,3.92,7.53,7.53,0,0,1-2.37-1.41,7.07,7.07,0,0,1-1.73-2.31,7.92,7.92,0,0,1,0-6.23A7.53,7.53,0,0,1,86.68,43,7,7,0,0,1,89,41.5,7.41,7.41,0,0,1,91.76,41,7.7,7.7,0,0,1,94.36,41.44Zm-.67,13.11a3.53,3.53,0,0,0,1.25-1.4A7,7,0,0,0,95.59,51a17.76,17.76,0,0,0,.2-2.75,9.56,9.56,0,0,0-1-5,3.33,3.33,0,0,0-3-1.59,3.62,3.62,0,0,0-2,.49,3.36,3.36,0,0,0-1.2,1.4,7,7,0,0,0-.6,2.15,20.75,20.75,0,0,0-.17,2.71,9.2,9.2,0,0,0,1.06,5,3.31,3.31,0,0,0,2.9,1.6A3.52,3.52,0,0,0,93.68,54.55Z" transform="translate(-0.29 -0.42)"/>
<path class="cls-1" d="M104.95,54.73a2.28,2.28,0,0,0,.17.71h-3.69a2.3,2.3,0,0,0,.17-.71,7,7,0,0,0,.07-.88v-18a3.8,3.8,0,0,0,0-.44q0-.25-.08-.52t-.09-.5a.62.62,0,0,0-.1-.29l3.51-.63V53.85A7,7,0,0,0,104.95,54.73Z" transform="translate(-0.29 -0.42)"/>
<path class="cls-1" d="M117.92,36.06q0-.39-.08-.82t-.1-.78a2.34,2.34,0,0,0-.09-.4l3.48-.63V50.55q0,.78,0,1.92,0,.15,0,.61t0,1q0,.5.07.92a1.18,1.18,0,0,0,.1.48l-1.17,0-1.09,0q-.59,0-1.1.09V53.7H118a3,3,0,0,1-.55.69,5,5,0,0,1-2.1,1.18,5.32,5.32,0,0,1-1.48.2,6.8,6.8,0,0,1-2.55-.48,6,6,0,0,1-2.1-1.41,6.54,6.54,0,0,1-1.41-2.29,9,9,0,0,1-.51-3.16,7.09,7.09,0,0,1,.69-3.21,7.41,7.41,0,0,1,1.79-2.33,7.62,7.62,0,0,1,2.44-1.42,8,8,0,0,1,2.7-.48,9.16,9.16,0,0,1,1.84.17,11.49,11.49,0,0,1,1.25.31V36.63Q118,36.45,117.92,36.06Zm-.24,7a2.43,2.43,0,0,0-.69-.83,2.67,2.67,0,0,0-.93-.45,3.85,3.85,0,0,0-1-.14,3.92,3.92,0,0,0-3.27,1.6,7.45,7.45,0,0,0-1.23,4.6,8.27,8.27,0,0,0,1.15,4.89A3.87,3.87,0,0,0,115,54.33a3.39,3.39,0,0,0,1.83-.44A5.42,5.42,0,0,0,118,53V44.31A2.6,2.6,0,0,0,117.68,43.08Z" transform="translate(-0.29 -0.42)"/>
<path class="cls-1" d="M127,46.84v.52a8.39,8.39,0,0,0,.45,3,5.44,5.44,0,0,0,1.16,1.9,4.06,4.06,0,0,0,1.56,1,5,5,0,0,0,1.67.3,7.08,7.08,0,0,0,1.6-.16,6.25,6.25,0,0,0,1.25-.42,4.21,4.21,0,0,0,.92-.57,6.49,6.49,0,0,0,.65-.61l.21.15a7.17,7.17,0,0,1-.65,1.17,5.85,5.85,0,0,1-1.16,1.26,6.42,6.42,0,0,1-1.72,1,6.19,6.19,0,0,1-2.33.41,8.09,8.09,0,0,1-2.71-.45,5.9,5.9,0,0,1-2.2-1.36,6.47,6.47,0,0,1-1.47-2.29,8.87,8.87,0,0,1-.54-3.24,7.91,7.91,0,0,1,.57-3.08A7.3,7.3,0,0,1,125.72,43a6.75,6.75,0,0,1,2.21-1.5,6.62,6.62,0,0,1,2.59-.52,5.59,5.59,0,0,1,2.46.5,5.16,5.16,0,0,1,1.68,1.26,5,5,0,0,1,1,1.71,5.82,5.82,0,0,1,.31,1.85h-9A5,5,0,0,0,127,46.84ZM128.84,42a3.13,3.13,0,0,0-1,1,4.1,4.1,0,0,0-.57,1.35,10.12,10.12,0,0,0-.24,1.51l5.79-.21q0-.63-.06-1.33a4.35,4.35,0,0,0-.3-1.29,2.48,2.48,0,0,0-.71-1,1.92,1.92,0,0,0-1.27-.39A3.13,3.13,0,0,0,128.84,42Z" transform="translate(-0.29 -0.42)"/>
<path class="cls-1" d="M141.89,43.86l.9-.9a10.92,10.92,0,0,1,1-.9,5.55,5.55,0,0,1,1.14-.69,3,3,0,0,1,1.23-.27,5.61,5.61,0,0,1,.69,0,2.38,2.38,0,0,1,.69.19l-.48,2.43a5.35,5.35,0,0,0-1-.45,4,4,0,0,0-1.1-.12,4.31,4.31,0,0,0-1.52.34,3.73,3.73,0,0,0-1.48,1v9.27a6.92,6.92,0,0,0,.08.88,2.28,2.28,0,0,0,.17.71h-3.69a2.28,2.28,0,0,0,.17-.71,7,7,0,0,0,.08-.88V43.68a3.81,3.81,0,0,0,0-.43q0-.25-.08-.53c0-.18-.06-.34-.09-.48a.91.91,0,0,0-.1-.3l3.39-.63v2.55Z" transform="translate(-0.29 -0.42)"/>
<path class="cls-1" d="M157.73,55.59a12.76,12.76,0,0,1-1.83-.52,10.1,10.1,0,0,1-1.51-.71q-.68-.39-1.19-.75l1.29-2.88a10.9,10.9,0,0,0,2.44,3.08,4.51,4.51,0,0,0,2.92,1,6.82,6.82,0,0,0,2.19-.3,3.42,3.42,0,0,0,1.36-.81,2.79,2.79,0,0,0,.69-1.19,5.09,5.09,0,0,0,.2-1.42,4.11,4.11,0,0,0-.23-1.44,3,3,0,0,0-.77-1.11,6.8,6.8,0,0,0-1.42-1,21.73,21.73,0,0,0-2.23-1q-1.26-.54-2.31-1.08a7.79,7.79,0,0,1-1.78-1.23,4.82,4.82,0,0,1-1.14-1.64,5.73,5.73,0,0,1-.4-2.26,6.09,6.09,0,0,1,.44-2.32,5,5,0,0,1,1.27-1.83,6,6,0,0,1,2.05-1.2,8.11,8.11,0,0,1,2.75-.43,12.66,12.66,0,0,1,3.22.4,8.27,8.27,0,0,1,2.6,1.13l-1.11,2.49a5.75,5.75,0,0,0-1.9-2.25,4.91,4.91,0,0,0-2.86-.84,5,5,0,0,0-1.47.21,3.46,3.46,0,0,0-1.21.65,3,3,0,0,0-.82,1.08,3.48,3.48,0,0,0-.3,1.48,3.63,3.63,0,0,0,.21,1.26,3.35,3.35,0,0,0,.69,1.1,5.33,5.33,0,0,0,1.29,1,17,17,0,0,0,2,.95q1.65.66,2.86,1.27a8.75,8.75,0,0,1,2,1.33,4.78,4.78,0,0,1,1.17,1.62,5.25,5.25,0,0,1,.39,2.1,6.84,6.84,0,0,1-.44,2.46,5.28,5.28,0,0,1-1.35,2,6.35,6.35,0,0,1-2.31,1.33,10.21,10.21,0,0,1-3.31.48A10.1,10.1,0,0,1,157.73,55.59Z" transform="translate(-0.29 -0.42)"/>
<path class="cls-1" d="M182.69,54.73a1.58,1.58,0,0,0,.18.71h-3.42V53.73h-.06a6.47,6.47,0,0,1-1.32,1,11.78,11.78,0,0,1-1.53.72,5.08,5.08,0,0,1-1.83.3,6.5,6.5,0,0,1-1.89-.25,3.23,3.23,0,0,1-1.42-.87,4.07,4.07,0,0,1-.9-1.65,8.93,8.93,0,0,1-.31-2.56v-7.5a6.92,6.92,0,0,0-.08-.89,1.67,1.67,0,0,0-.19-.71h3.48v10a2.47,2.47,0,0,0,2.76,3,4.35,4.35,0,0,0,1.75-.42,3.93,3.93,0,0,0,1.52-1.14V42.93a7,7,0,0,0-.08-.89,2.28,2.28,0,0,0-.17-.71h3.45V53.85A8.67,8.67,0,0,0,182.69,54.73Z" transform="translate(-0.29 -0.42)"/>
<path class="cls-1" d="M189.05,43.86l.9-.9a10.79,10.79,0,0,1,1-.9,5.59,5.59,0,0,1,1.14-.69,3,3,0,0,1,1.23-.27,5.59,5.59,0,0,1,.69,0,2.37,2.37,0,0,1,.69.19l-.48,2.43a5.31,5.31,0,0,0-1-.45,4,4,0,0,0-1.09-.12,4.3,4.3,0,0,0-1.51.34,3.73,3.73,0,0,0-1.49,1v9.27a7,7,0,0,0,.08.88,2.27,2.27,0,0,0,.17.71h-3.69a2.3,2.3,0,0,0,.17-.71,7,7,0,0,0,.07-.88V43.68a3.8,3.8,0,0,0,0-.43q0-.25-.08-.53c0-.18-.06-.34-.09-.48a.91.91,0,0,0-.1-.3l3.39-.63v2.55Z" transform="translate(-0.29 -0.42)"/>
<path class="cls-1" d="M207.74,42.49l-.6,1.42-4.62,11.52H201l-4.56-11.52q-.21-.54-.58-1.31t-.67-1.27h4q.15.66.38,1.49t.46,1.48l2.91,8,3-8.43a4.39,4.39,0,0,0,.18-.54l.18-.67q.09-.34.17-.69t.11-.62h1.8A5.84,5.84,0,0,0,207.74,42.49Z" transform="translate(-0.29 -0.42)"/>
<path class="cls-1" d="M212.09,46.84v.52a8.37,8.37,0,0,0,.45,3,5.44,5.44,0,0,0,1.15,1.9,4.06,4.06,0,0,0,1.56,1,5,5,0,0,0,1.67.3,7.08,7.08,0,0,0,1.6-.16,6.27,6.27,0,0,0,1.25-.42,4.2,4.2,0,0,0,.92-.57,6.43,6.43,0,0,0,.64-.61l.21.15a7.09,7.09,0,0,1-.64,1.17,5.84,5.84,0,0,1-1.16,1.26,6.41,6.41,0,0,1-1.72,1,6.19,6.19,0,0,1-2.33.41,8.09,8.09,0,0,1-2.71-.45A5.9,5.9,0,0,1,210.77,54a6.48,6.48,0,0,1-1.47-2.29,8.86,8.86,0,0,1-.54-3.24,7.92,7.92,0,0,1,.57-3.08A7.31,7.31,0,0,1,210.86,43a6.76,6.76,0,0,1,2.21-1.5,6.62,6.62,0,0,1,2.59-.52,5.59,5.59,0,0,1,2.46.5,5.16,5.16,0,0,1,1.68,1.26,5,5,0,0,1,1,1.71,5.82,5.82,0,0,1,.32,1.85h-9A4.89,4.89,0,0,0,212.09,46.84ZM214,42a3.13,3.13,0,0,0-1,1,4.11,4.11,0,0,0-.57,1.35,10.12,10.12,0,0,0-.24,1.51l5.79-.21q0-.63-.06-1.33a4.35,4.35,0,0,0-.3-1.29,2.47,2.47,0,0,0-.7-1,1.92,1.92,0,0,0-1.28-.39A3.13,3.13,0,0,0,214,42Z" transform="translate(-0.29 -0.42)"/>
<path class="cls-1" d="M233.34,43.2q.11-.3.2-.63t.17-.65l.13-.58h1.71a5.84,5.84,0,0,0-.63,1.16l-.6,1.42-4.83,11.7q-.72,1.77-1.39,3a9.3,9.3,0,0,1-1.49,2.11,5.26,5.26,0,0,1-1.8,1.25,6.17,6.17,0,0,1-2.34.4,5.82,5.82,0,0,1-.9-.08c-.32,0-.63-.11-.93-.18a7.43,7.43,0,0,1-.83-.24,2.69,2.69,0,0,1-.55-.25l.75-2.4a11.2,11.2,0,0,0,1.25,1.48,2.3,2.3,0,0,0,1.69.68,4,4,0,0,0,1.23-.2,3.49,3.49,0,0,0,1.16-.66,6.31,6.31,0,0,0,1.09-1.25,13.17,13.17,0,0,0,1.08-2l.6-1.35-4.92-12.12q-.21-.54-.57-1.31a11.12,11.12,0,0,0-.69-1.27h4q.15.66.39,1.49t.48,1.48l3,8,3.3-8.61C233.21,43.57,233.28,43.4,233.34,43.2Z" transform="translate(-0.29 -0.42)"/>
</svg>
